<?xml version="1.0" encoding="utf-8"?>
<!-- Generator: Adobe Illustrator 24.1.1, SVG Export Plug-In . SVG Version: 6.00 Build 0)  -->
<svg version="1.1" id="Layer_1" xmlns="http://www.w3.org/2000/svg" xmlns:xlink="http://www.w3.org/1999/xlink" x="0px" y="0px"
	 viewBox="0 0 214.57 64.83" style="enable-background:new 0 0 214.57 64.83;" xml:space="preserve">
<style type="text/css">
	.st0{fill:#FFF209;}
	.st1{fill:#FFFFFF;}
</style>
<g>
	<g>
		<path class="st0" d="M42.69,43.08c-0.44,3.61-2.05,6.6-4.87,8.91c-2.82,2.31-6.23,3.44-10.24,3.44H6.31l5.12-41.69h20.25
			c3.89,0,6.81,1.02,8.76,3.05s2.73,4.46,2.39,7.22c-0.46,3.78-3.27,7.33-6.8,8.52C41.07,33.71,43.33,37.88,42.69,43.08z
			 M21.73,23.56L21,29.48h5.98c2.54,0,3.83-1.35,4.03-2.93c0.2-1.64-0.82-2.99-2.79-2.99H21.73z M26.2,45.5
			c2.88,0,4.32-1.64,4.54-3.44c0.23-1.86-0.88-3.38-3.31-3.38h-7.56l-0.84,6.83H26.2z"/>
		<path class="st0" d="M78.07,42.57H56.35c0.86,2.65,2.96,3.95,6.34,3.95c3.33,0,6.43-0.9,9.42-2.71l3.39,7.33
			c-4.41,2.88-9.21,4.29-14.46,4.29c-5.58,0-9.68-1.58-12.34-4.68c-2.66-3.16-3.7-7.05-3.14-11.68c0.58-4.74,2.65-8.69,6.13-11.79
			c3.54-3.1,7.85-4.68,12.87-4.68c4.68,0,8.4,1.41,11.16,4.23c2.76,2.76,3.82,6.6,3.23,11.4C78.78,39.52,78.49,40.99,78.07,42.57z
			 M57.09,35.18h11.68c-0.64-2.6-2.4-3.89-5.28-3.89C60.56,31.28,58.42,32.58,57.09,35.18z"/>
		<path class="st0" d="M105.56,52.87c-3.11,1.65-6.84,2.56-10.63,2.56c-7.8,0-11.17-4.28-10.12-12.85l1.17-9.55h-4.5l-1.87-8.9h7.57
			l1.33-10.82h10.71l-1.33,10.82h8.22l1.91,8.9H96.8l-0.98,8.02c-0.37,3.02,0.65,4.56,3.01,4.56c1.26,0,2.91-0.44,4.82-1.26
			L105.56,52.87z"/>
	</g>
	<g>
		<path class="st1" d="M115.96,55.43l-6.82-31.31h11.68l2.82,16.98l7.45-16.98h7.84l3.27,16.98l6.99-16.98h11.68l-14.51,31.31h-9.99
			l-3.34-15.06l-7.1,15.06H115.96z"/>
		<path class="st1" d="M171.08,55.43h-11.11l3.85-31.37h11.11L171.08,55.43z"/>
		<path class="st1" d="M186.81,55.43h-11.06l5.65-46.03h11.06L186.81,55.43z"/>
		<path class="st1" d="M202.61,55.43h-11.06l5.65-46.03h11.06L202.61,55.43z"/>
		<circle class="st1" cx="170.4" cy="15.22" r="5.83"/>
	</g>
</g>
</svg>
